<svg width="32" height="32" viewBox="0 0 32 32" fill="none" xmlns="http://www.w3.org/2000/svg">
<path d="M21.5866 2.66666H10.4133C5.55996 2.66666 2.66663 5.55999 2.66663 10.4133V21.5733C2.66663 26.44 5.55996 29.3333 10.4133 29.3333H21.5733C26.4266 29.3333 29.32 26.44 29.32 21.5867V10.4133C29.3333 5.55999 26.44 2.66666 21.5866 2.66666ZM24 17H17V24C17 24.5467 16.5466 25 16 25C15.4533 25 15 24.5467 15 24V17H7.99996C7.45329 17 6.99996 16.5467 6.99996 16C6.99996 15.4533 7.45329 15 7.99996 15H15V7.99999C15 7.45332 15.4533 6.99999 16 6.99999C16.5466 6.99999 17 7.45332 17 7.99999V15H24C24.5466 15 25 15.4533 25 16C25 16.5467 24.5466 17 24 17Z" fill="#455A64"/>
</svg>
