<svg width="32" height="32" viewBox="0 0 32 32" fill="none" xmlns="http://www.w3.org/2000/svg">
<path d="M27.7734 10.68L19.04 3.69335C17.3334 2.33335 14.6667 2.32001 12.9734 3.68001L4.24003 10.68C2.9867 11.68 2.2267 13.68 2.49337 15.2533L4.17337 25.3067C4.56003 27.56 6.65336 29.3333 8.93336 29.3333H23.0667C25.32 29.3333 27.4534 27.52 27.84 25.2933L29.52 15.24C29.76 13.68 29 11.68 27.7734 10.68ZM18.0001 28.5C18.0001 29.0467 16.5467 29 16.0001 29C15.4534 29 14.0001 29.0467 14.0001 28.5V20C14.0001 19.4533 15.4534 19 16 19C16.5467 19 18.0001 19.4533 18.0001 20V28.5Z" fill="url(#paint0_linear_99_356)"/>
<defs>
<linearGradient id="paint0_linear_99_356" x1="15.1497" y1="16" x2="30.6154" y2="14.6425" gradientUnits="userSpaceOnUse">
<stop stop-color="#00B4DB"/>
<stop offset="1" stop-color="#0083B0"/>
</linearGradient>
</defs>
</svg>
