<svg width="32" height="32" viewBox="0 0 32 32" fill="none" xmlns="http://www.w3.org/2000/svg">
<path d="M27.7733 10.68L19.04 3.69335C17.3333 2.33335 14.6666 2.32001 12.9733 3.68001L4.23997 10.68C2.98664 11.68 2.22664 13.68 2.4933 15.2533L4.1733 25.3067C4.55997 27.56 6.6533 29.3333 8.9333 29.3333H23.0666C25.32 29.3333 27.4533 27.52 27.84 25.2933L29.52 15.24C29.76 13.68 29 11.68 27.7733 10.68ZM18 28.5C18 29.0467 16.5467 29 16 29C15.4533 29 14 29.0467 14 28.5V20C14 19.4533 15.4533 19 16 19C16.5466 19 18 19.4533 18 20V28.5Z" fill="#E1306C"/>
</svg>
