<svg width="147" height="42" viewBox="0 0 147 42" fill="none" xmlns="http://www.w3.org/2000/svg">
<path d="M7.7883 0.259033C4.78911 1.51544 1.49197 5.06046 0.450634 9.51337C-0.868173 15.1539 4.61991 17.5394 5.07003 16.7583C5.59983 15.8393 4.08666 15.5285 3.77515 12.6019C3.37263 8.82178 5.12997 4.598 7.34188 2.74471C7.75279 2.4004 7.7333 2.87963 7.7333 3.76607C7.7333 5.35125 7.64574 19.5814 7.64574 22.5512C7.64574 26.5698 7.47975 27.8388 7.18156 29.0927C6.87966 30.3634 6.39402 31.222 6.76177 31.5528C7.17292 31.9227 8.92829 31.0427 9.94447 29.6245C11.1629 27.9236 11.5893 25.8809 11.666 23.6626C11.7585 20.9885 11.7546 16.7452 11.7585 14.3249C11.762 12.1051 11.7958 5.60505 11.7196 1.69746C11.7008 0.739002 9.04274 -0.266566 7.7883 0.259033Z" fill="#455A64"/>
<path d="M114.29 19.0657C114.193 21.1547 113.73 22.7878 113.157 23.9396C112.045 26.1695 109.74 26.8618 108.761 23.6564C108.227 21.9092 108.202 18.9909 108.586 16.5526C108.976 14.0686 110.067 12.1927 111.872 12.3619C113.652 12.5291 114.486 14.8234 114.29 19.0657ZM84.2725 32.0273C84.2484 35.4986 83.702 38.5422 82.5305 39.4261C80.8688 40.6796 78.6355 39.7394 79.0979 37.2063C79.5071 34.9648 81.4423 32.6757 84.2772 29.8788C84.2772 29.8788 84.2831 30.5166 84.2725 32.0273ZM83.8187 19.0452C83.7171 20.948 83.2238 22.8595 82.6856 23.9396C81.5747 26.1695 79.2523 26.8665 78.2899 23.6564C77.6319 21.463 77.7895 18.6244 78.1151 16.8357C78.5376 14.5151 79.5616 12.3621 81.4008 12.3621C83.189 12.3621 84.0708 14.3239 83.8187 19.0452ZM66.43 19.0163C66.321 21.0314 65.9279 22.716 65.297 23.9396C64.1555 26.1542 61.8972 26.8564 60.9013 23.6564C60.1833 21.3488 60.4277 18.2026 60.7264 16.503C61.1696 13.9808 62.2795 12.1927 64.0122 12.3621C65.792 12.536 66.6572 14.8234 66.43 19.0163ZM146.118 21.3701C145.683 21.3701 145.484 21.8187 145.32 22.5734C144.75 25.1985 144.152 25.7909 143.379 25.7909C142.517 25.7909 141.741 24.4913 141.542 21.8895C141.385 19.8436 141.411 16.0773 141.611 12.3308C141.652 11.561 141.439 10.7994 139.375 10.0493C138.486 9.72672 137.195 9.25168 136.552 10.8038C134.735 15.1889 134.024 18.6703 133.857 20.0843C133.849 20.1575 133.759 20.1726 133.743 20.0014C133.636 18.8688 133.398 16.8103 133.369 12.4859C133.363 11.6422 133.184 10.9239 132.253 10.3359C131.648 9.95437 129.813 9.27955 129.153 10.0824C128.58 10.7389 127.917 12.5059 127.228 14.6004C126.668 16.3027 126.279 17.4543 126.279 17.4543C126.279 17.4543 126.286 12.8611 126.293 11.1188C126.296 10.4615 125.845 10.2424 125.709 10.2027C125.097 10.0254 123.891 9.72869 123.379 9.72869C122.748 9.72869 122.593 10.0814 122.593 10.5956C122.593 10.6632 122.494 16.6431 122.494 20.8247C122.494 21.0065 122.494 21.2046 122.495 21.4152C122.145 23.337 121.013 25.946 119.781 25.946C118.548 25.946 117.966 24.8554 117.966 19.8702C117.966 16.9623 118.053 15.6975 118.096 13.5941C118.121 12.3826 118.169 11.4522 118.167 11.2411C118.158 10.5937 117.038 10.2674 116.517 10.1468C115.994 10.0254 115.539 9.97805 115.184 9.99827C114.681 10.0269 114.325 10.3564 114.325 10.81C114.325 11.0534 114.328 11.5156 114.328 11.5156C113.681 10.4982 112.639 9.7901 111.947 9.5849C110.08 9.03069 108.133 9.522 106.664 11.577C105.497 13.2101 104.793 15.0597 104.516 17.717C104.314 19.6598 104.38 21.6298 104.74 23.2959C104.305 25.1758 103.498 25.946 102.614 25.946C101.33 25.946 100.4 23.8515 100.508 20.2288C100.579 17.8462 101.056 16.174 101.577 13.7549C101.8 12.7237 101.619 12.1838 101.166 11.6663C100.751 11.1918 99.8659 10.9493 98.5937 11.2475C97.6875 11.4601 96.3919 11.6888 95.2065 11.8644C95.2065 11.8644 95.278 11.579 95.3367 11.0759C95.645 8.43726 92.7778 8.65135 91.863 9.49413C91.3169 9.99729 90.9452 10.5907 90.8042 11.6577C90.5804 13.3509 91.9614 14.1495 91.9614 14.1495C91.5083 16.2238 90.3977 18.933 89.251 20.8918C88.6369 21.9413 88.167 22.719 87.5605 23.5457C87.5583 23.2379 87.5566 22.9298 87.5556 22.6235C87.5418 18.2631 87.5998 14.8315 87.6254 13.5943C87.6503 12.3828 87.6989 11.4772 87.6962 11.266C87.6893 10.7927 87.4128 10.6136 86.8376 10.3872C86.329 10.187 85.7277 10.0483 85.104 10C84.3167 9.93883 83.8424 10.3562 83.8547 10.8499C83.8572 10.9432 83.8572 11.5156 83.8572 11.5156C83.2097 10.4982 82.1684 9.7901 81.4756 9.5849C79.6095 9.03093 77.6622 9.522 76.1935 11.577C75.0263 13.2101 74.262 15.5016 74.0454 17.6968C73.8437 19.7427 73.8809 21.481 74.1559 22.9459C73.8592 24.4124 73.0061 25.946 72.0414 25.946C70.8082 25.946 70.1065 24.8554 70.1065 19.8702C70.1065 16.9623 70.1938 15.6975 70.2367 13.5943C70.2617 12.3828 70.3097 11.4522 70.307 11.2414C70.2979 10.5939 69.1784 10.2676 68.6575 10.1468C68.1124 10.0207 67.6418 9.97435 67.2805 10.0012C66.8037 10.0365 66.4685 10.4634 66.4685 10.7819V11.5156C65.8211 10.4982 64.7797 9.7901 64.0869 9.5849C62.2208 9.03093 60.2844 9.52989 58.8048 11.577C57.8399 12.9119 57.0588 14.3917 56.6568 17.6677C56.5406 18.6143 56.4893 19.501 56.4959 20.3295C56.1112 22.6827 54.4118 25.3945 53.0217 25.3945C52.2083 25.3945 51.4336 23.8168 51.4336 20.4543C51.4336 15.9752 51.7108 9.59821 51.7577 8.98358C51.7577 8.98358 53.514 8.95373 53.8541 8.94979C54.7302 8.94017 55.5237 8.96089 56.6905 8.9012C57.2758 8.87135 57.8397 6.77093 57.2356 6.51097C56.9619 6.39332 55.0269 6.29022 54.2599 6.27394C53.6149 6.25939 51.8193 6.12645 51.8193 6.12645C51.8193 6.12645 51.9804 1.89354 52.0179 1.44637C52.0497 1.0737 51.5675 0.881806 51.291 0.76539C50.6187 0.481009 50.0171 0.344861 49.304 0.197861C48.3189 -0.00537354 47.872 0.193422 47.7847 1.02486C47.6533 2.28669 47.5852 5.98266 47.5852 5.98266C46.8623 5.98266 44.3929 5.84133 43.6697 5.84133C42.9978 5.84133 42.2727 8.73077 43.2016 8.76628C44.2703 8.80772 46.1327 8.84373 47.3674 8.88073C47.3674 8.88073 47.3124 15.363 47.3124 17.3645C47.3124 17.5774 47.3134 17.7824 47.3146 17.9814C46.6351 21.523 44.2417 23.4362 44.2417 23.4362C44.7557 21.0931 43.7057 19.3335 41.8144 17.844C41.1177 17.2952 39.7421 16.2561 38.2031 15.1174C38.2031 15.1174 39.0944 14.2391 39.8849 12.4714C40.4451 11.2192 40.4692 9.78665 39.0944 9.4707C36.8229 8.94831 34.9498 10.6166 34.3912 12.3976C33.9583 13.7776 34.1892 14.8012 35.0372 15.8647C35.0991 15.9424 35.1661 16.0218 35.2355 16.1017C34.7227 17.09 34.0183 18.4207 33.4216 19.4526C31.7657 22.3177 30.5147 24.5838 29.5693 24.5838C28.8136 24.5838 28.8237 22.2829 28.8237 20.1287C28.8237 18.2717 28.9608 15.4797 29.0703 12.589C29.1066 11.633 28.6286 11.0884 27.8272 10.5952C27.3404 10.2955 26.3013 9.70624 25.6994 9.70624C24.7987 9.70624 22.1998 9.82883 19.7442 16.9319C19.4347 17.8273 18.8267 19.4586 18.8267 19.4586L18.8792 10.9168C18.8792 10.7165 18.7724 10.5229 18.5283 10.3904C18.1144 10.1657 17.0092 9.70624 16.0265 9.70624C15.5584 9.70624 15.3246 9.92403 15.3246 10.3581L15.239 23.7218C15.239 24.7375 15.2654 25.9219 15.3658 26.4398C15.4659 26.9585 15.628 27.3805 15.8285 27.6316C16.029 27.8822 16.2609 28.0734 16.6429 28.1523C16.9986 28.2255 18.9466 28.4756 19.0477 27.7313C19.169 26.8391 19.1737 25.8743 20.1966 22.2757C21.7889 16.6732 23.8647 13.9396 24.8409 12.9689C25.0116 12.7992 25.2064 12.7891 25.197 13.0668C25.1553 14.2951 25.0088 17.3645 24.9102 19.9718C24.6458 26.9499 25.9153 28.2433 27.7293 28.2433C29.1172 28.2433 31.0736 26.8643 33.1708 23.3735C34.4783 21.1981 35.7477 19.0652 36.6598 17.5278C37.2954 18.1163 38.0087 18.7495 38.7215 19.426C40.378 20.9981 40.9218 22.492 40.561 23.9093C40.285 24.9928 39.2456 26.1093 37.3958 25.0241C36.8566 24.7074 36.6265 24.4627 36.0844 24.1058C35.7931 23.9142 35.3484 23.8567 35.0818 24.0577C34.3892 24.5799 33.9931 25.2441 33.7669 26.0664C33.5469 26.8665 34.3483 27.2895 35.179 27.6595C35.8942 27.9779 37.4316 28.2665 38.412 28.2993C42.232 28.427 45.2921 26.4549 47.4224 21.3676C47.8037 25.7613 49.4266 28.2472 52.2463 28.2472C54.1314 28.2472 56.0214 25.8106 56.8479 23.4135C57.0852 24.3907 57.4364 25.2404 57.89 25.9591C60.0627 29.4015 64.2776 28.6606 66.3948 25.7374C67.0494 24.8342 67.149 24.5096 67.149 24.5096C67.4578 27.2698 69.6806 28.2342 70.9532 28.2342C72.3786 28.2342 73.8503 27.5603 74.8818 25.2382C75.0027 25.4902 75.1346 25.731 75.2786 25.9591C77.4513 29.4015 81.6662 28.6606 83.7834 25.7374C83.8833 25.6002 83.9699 25.4759 84.0456 25.3642L84.1078 27.1773C84.1078 27.1773 82.8999 28.2852 82.1585 28.965C78.8912 31.9595 76.4093 34.2308 76.2267 36.8758C75.9944 40.2484 78.728 41.5019 80.7993 41.6662C82.9949 41.8405 84.8785 40.6266 86.0346 38.9277C87.052 37.4323 87.7179 34.2138 87.6691 31.0351C87.6496 29.7621 87.6175 28.1436 87.5924 26.4087C88.7393 25.0769 90.0314 23.3933 91.2212 21.4231C92.5178 19.2758 93.9074 16.392 94.619 14.1478C94.619 14.1478 95.8263 14.1582 97.1148 14.0738C97.5269 14.0469 97.6453 14.131 97.5691 14.4332C97.4771 14.7982 95.9413 20.7221 97.3429 24.6684C98.3024 27.3699 100.465 28.2391 101.748 28.2391C103.249 28.2391 104.685 27.1055 105.454 25.4222C105.547 25.6099 105.644 25.7914 105.75 25.9591C107.922 29.4015 112.122 28.6562 114.254 25.7374C114.736 25.0788 115.009 24.5096 115.009 24.5096C115.466 27.3662 117.688 28.2487 118.96 28.2487C120.286 28.2487 121.543 27.7054 122.564 25.2905C122.607 26.3537 122.674 27.2232 122.78 27.4972C122.844 27.6649 123.221 27.8753 123.495 27.9769C124.708 28.4265 125.944 28.2139 126.402 28.1214C126.719 28.0573 126.966 27.803 127 27.1465C127.088 25.4224 127.034 22.5258 127.557 20.3729C128.434 16.76 129.252 15.3586 129.641 14.6648C129.858 14.2761 130.103 14.2119 130.112 14.6233C130.13 15.4558 130.172 17.9003 130.511 21.1846C130.761 23.6 131.094 25.0278 131.351 25.4796C132.082 26.7718 132.985 26.833 133.721 26.833C134.189 26.833 135.167 26.7037 135.08 25.8814C135.037 25.4806 135.112 23.0036 135.977 19.4443C136.541 17.1199 137.483 15.0199 137.823 14.2519C137.948 13.9688 138.006 14.192 138.004 14.2354C137.933 15.8361 137.772 21.0719 138.424 23.9354C139.308 27.8146 141.865 28.2487 142.757 28.2487C144.659 28.2487 146.215 26.8017 146.739 22.994C146.865 22.0777 146.678 21.3701 146.118 21.3701Z" fill="#455A64"/>
</svg>
