<svg width="32" height="32" viewBox="0 0 32 32" fill="none" xmlns="http://www.w3.org/2000/svg">
<path d="M16 2.66666C8.64002 2.66666 2.66669 8.63999 2.66669 16C2.66669 23.36 8.64002 29.3333 16 29.3333C23.36 29.3333 29.3334 23.36 29.3334 16C29.3334 8.63999 23.36 2.66666 16 2.66666ZM16.44 22.6667C16.2 22.7467 15.7867 22.7467 15.5467 22.6667C13.4667 21.96 8.80002 18.9867 8.80002 13.9467C8.80002 11.72 10.5867 9.91999 12.8 9.91999C14.1067 9.91999 15.2667 10.5467 16 11.5333C16.72 10.56 17.8934 9.91999 19.2 9.91999C21.4134 9.91999 23.2 11.72 23.2 13.9467C23.2 18.9867 18.5334 21.96 16.44 22.6667Z" fill="#455A64"/>
</svg>
