<svg width="161" height="41" viewBox="0 0 161 41" fill="none" xmlns="http://www.w3.org/2000/svg">
<g clip-path="url(#clip0_142_587)">
<path d="M12.6619 6.8744C11.7703 6.88289 10.9105 6.54263 10.266 5.92614C9.62138 5.30965 9.24293 4.46567 9.21127 3.57407C9.19867 2.66196 9.54873 1.7822 10.1845 1.12833C10.8202 0.474454 11.6895 0.100031 12.6011 0.087426C13.5128 0.0748208 14.3921 0.425066 15.0456 1.06111C15.6992 1.69716 16.0734 2.5669 16.086 3.47901C16.0922 3.9292 16.0077 4.37604 15.8375 4.79281C15.6672 5.20958 15.4147 5.58774 15.0951 5.90468C14.7755 6.22163 14.3953 6.47085 13.9772 6.63747C13.5592 6.80408 13.1118 6.88466 12.6619 6.8744Z" fill="#4BC4DE"/>
<path d="M40.5865 38.2161C40.5865 40.4176 40.0811 40.9119 37.9605 40.9157C36.9648 40.9157 35.9767 40.9157 34.9849 40.9157C32.9669 40.9157 32.5033 40.4404 32.4995 38.4253C32.4995 32.3721 32.4995 26.319 32.4653 20.2696V20.2202C32.4235 18.0567 30.6829 16.6005 28.5738 16.6689H28.5206C26.4152 16.6005 24.6671 18.0567 24.6291 20.2202V20.2696C24.5873 26.319 24.6063 32.3721 24.5911 38.4253C24.5911 40.4404 24.1274 40.9005 22.1057 40.9157C21.1176 40.9157 20.1257 40.9157 19.1376 40.9157C17.0133 40.9157 16.5078 40.4176 16.5078 38.2161C16.5078 32.4786 16.5078 26.7372 16.5078 20.9997C16.4709 18.1711 17.3999 15.4146 19.1414 13.1861C19.5423 12.6752 19.9846 12.1983 20.4639 11.7603C20.6198 11.6196 20.7794 11.4865 20.9428 11.3534C21.2233 11.1958 21.4869 11.0098 21.7294 10.7983C21.9499 10.6386 22.1741 10.4865 22.4021 10.3458C22.4329 10.3234 22.4661 10.3043 22.5009 10.2888C24.2756 9.2796 26.271 8.72208 28.3116 8.66525H28.779C30.884 8.72036 32.9402 9.31188 34.753 10.3839C34.9621 10.5131 35.1673 10.65 35.3649 10.7983C35.5987 11.0065 35.8534 11.19 36.125 11.3458C36.2884 11.4789 36.448 11.6196 36.6076 11.7603C37.0879 12.1973 37.5303 12.6743 37.9301 13.1861C39.6721 15.4148 40.6037 18.1706 40.5713 20.9997C40.6055 26.7372 40.5941 32.4786 40.5865 38.2161Z" fill="#FF78F2"/>
<path opacity="0.67" d="M24.6861 38.2161C24.6861 40.4176 24.1807 40.9119 22.0601 40.9157C21.0644 40.9157 20.0763 40.9157 19.0845 40.9157C17.0703 40.9157 16.6029 40.4404 16.5991 38.4253C16.5991 32.3721 16.5991 26.319 16.5649 20.2696V20.2202C16.5231 18.0567 14.7825 16.6005 12.6734 16.6689H12.6202C10.5148 16.6005 8.76666 18.0567 8.72866 20.2202V20.2696C8.68686 26.319 8.70586 32.3721 8.69446 38.4253C8.69446 40.4404 8.22702 40.9005 6.20527 40.9157C5.21719 40.9157 4.22531 40.9157 3.23724 40.9157C1.11287 40.9157 0.607432 40.4176 0.607432 38.2161C0.599831 32.4786 0.599831 26.7372 0.599831 20.9997C0.568899 18.1677 1.50765 15.4103 3.26004 13.1861C3.65852 12.6744 4.09967 12.1974 4.57874 11.7603C4.73455 11.6196 4.89416 11.4865 5.05758 11.3534C5.32884 11.1943 5.58346 11.0083 5.81764 10.7983C6.04185 10.6386 6.26227 10.4865 6.49029 10.3458C6.52113 10.3234 6.55425 10.3043 6.5891 10.2888C8.36383 9.2796 10.3592 8.72208 12.3997 8.66525H12.871C14.9746 8.722 17.0291 9.31343 18.8412 10.3839C19.0465 10.5131 19.2517 10.65 19.4493 10.7983C19.6831 11.0065 19.9378 11.19 20.2094 11.3458C20.3766 11.4789 20.5362 11.6196 20.692 11.7603C21.1723 12.1973 21.6147 12.6743 22.0145 13.1861C23.7582 15.4139 24.6899 18.1703 24.6557 20.9997C24.6962 26.736 24.7064 32.4748 24.6861 38.2161Z" fill="#00B4DB"/>
<path d="M28.5624 6.8744C27.67 6.88389 26.8093 6.54408 26.164 5.92749C25.5186 5.31089 25.1396 4.46634 25.1079 3.57407C25.0967 3.10807 25.179 2.64455 25.3498 2.21086C25.5206 1.77718 25.7765 1.38211 26.1023 1.04898C26.4282 0.715843 26.8175 0.451391 27.2472 0.271225C27.6769 0.0910598 28.1383 -0.00116936 28.6042 -1.99042e-05C29.5121 0.0179622 30.3763 0.393274 31.0094 1.04454C31.6426 1.6958 31.9936 2.57051 31.9864 3.47902C31.9922 3.92906 31.9073 4.37566 31.7368 4.79219C31.5664 5.20872 31.3139 5.58667 30.9944 5.9035C30.6749 6.22034 30.2949 6.46958 29.8771 6.63639C29.4592 6.80319 29.0121 6.88414 28.5624 6.8744Z" fill="#FF78F2"/>
<path d="M51.8967 38.8853C46.7283 38.8853 42.4872 33.6193 42.4872 27.1479C42.4872 20.6765 46.7283 15.4104 51.8967 15.4104C57.0651 15.4104 61.3062 20.6309 61.3062 27.1479C61.3062 33.6649 57.0955 38.8853 51.8967 38.8853ZM51.8967 20.4179C49.0807 20.4179 46.7929 23.3951 46.7929 27.1479C46.7929 30.9007 49.0731 33.8778 51.8967 33.8778C54.7203 33.8778 56.9967 30.9007 56.9967 27.1479C56.9967 23.3951 54.7469 20.4179 51.8967 20.4179Z" fill="#455A64"/>
<path d="M67.9872 38.2808H63.6928V15.9693H67.9872V17.7792C68.5162 17.048 69.2074 16.4494 70.0066 16.0305C70.8058 15.6116 71.6911 15.3837 72.5931 15.3648C75.1089 15.3648 77.1307 16.9161 78.2252 19.2925C79.3843 16.8324 81.4022 15.3648 83.7242 15.3648C87.6309 15.3648 90.2493 19.1176 90.2493 23.9084V38.277H85.955V25.0947C85.955 22.3343 84.5641 20.4369 82.5347 20.4369C80.5053 20.4369 79.1144 22.2468 79.1144 25.0947V38.2998H74.8277V25.0947C74.8277 22.3343 73.4368 20.4369 71.4074 20.4369C69.3781 20.4369 67.9872 22.2468 67.9872 25.0947V38.2808Z" fill="#455A64"/>
<path d="M101.559 15.456C106.693 15.456 110.338 20.4179 110.338 27.3646V29.0033H97.1202C97.6827 31.893 99.5372 34.0071 101.924 34.0071C103.744 34.0071 105.169 33.1896 106.431 31.0756L109.445 34.0071C107.723 37.0717 105.139 38.8397 101.958 38.8397C96.7212 38.8397 92.6815 33.9196 92.6815 27.1022C92.6891 20.8894 96.4894 15.456 101.559 15.456ZM97.1848 24.6878H105.967C105.336 21.9274 103.547 20.2887 101.46 20.2887C99.4384 20.2887 97.7815 21.9692 97.1848 24.6878Z" fill="#455A64"/>
<path d="M128.56 38.2808H124.232V25.2049C124.232 22.3152 122.806 20.4179 120.686 20.4179C118.565 20.4179 117.11 22.2278 117.11 25.2049V38.2808H112.758V15.9693H117.098V17.8704C117.627 17.1089 118.33 16.4846 119.148 16.0494C119.966 15.6143 120.877 15.3809 121.803 15.3686C125.812 15.3686 128.56 19.2088 128.56 24.0833V38.2808Z" fill="#455A64"/>
<path d="M133.398 32.6687V20.8476H130.054V15.9693H133.398V9.50552H137.707V15.9693H141.481V20.8476H137.707V31.6763C137.707 32.8436 138.334 33.4025 139.33 33.4025H141.481V38.2808H138.103C134.99 38.2808 133.398 35.8625 133.398 32.6687Z" fill="#455A64"/>
<path d="M142.344 31.2467H146.452C146.881 33.49 148.405 34.4405 150.252 34.4405C151.841 34.4405 152.703 33.49 152.703 32.1592C152.703 31.2543 152.141 30.4786 150.978 30.087L147.436 29.011C144.267 28.011 142.644 25.8551 142.644 22.4331C142.644 18.1594 145.357 15.399 149.036 15.399C153.41 15.399 156.059 18.764 156.557 23.0377H152.483C152.019 20.7069 150.427 19.7563 149.002 19.7563C147.577 19.7563 146.881 20.6651 146.881 21.8285C146.881 22.992 147.577 23.7715 148.937 24.2011L152.217 25.2391C155.364 26.2353 156.914 28.3988 156.914 31.7219C156.914 35.7409 154.402 38.7827 150.264 38.7827C145.756 38.7827 143.005 35.5166 142.344 31.2467Z" fill="#455A64"/>
</g>
<defs>
<clipPath id="clip0_142_587">
<rect width="160" height="40.9195" fill="white" transform="translate(0.599792)"/>
</clipPath>
</defs>
</svg>
