<svg width="48" height="48" viewBox="0 0 48 48" fill="none" xmlns="http://www.w3.org/2000/svg">
<circle cx="24" cy="24" r="24" fill="#F0FCFF"/>
<path d="M34.0199 28.82L30.8899 21.5C30.3199 20.16 29.4699 19.4 28.4999 19.35C27.5399 19.3 26.6099 19.97 25.8999 21.25L23.9999 24.66C23.5999 25.38 23.0299 25.81 22.4099 25.86C21.7799 25.92 21.1499 25.59 20.6399 24.94L20.4199 24.66C19.7099 23.77 18.8299 23.34 17.9299 23.43C17.0299 23.52 16.2599 24.14 15.7499 25.15L14.0199 28.6C13.3999 29.85 13.4599 31.3 14.1899 32.48C14.9199 33.66 16.1899 34.37 17.5799 34.37H30.3399C31.6799 34.37 32.9299 33.7 33.6699 32.58C34.4299 31.46 34.5499 30.05 34.0199 28.82Z" fill="#00B4DB"/>
<path d="M18.9701 20.38C20.8368 20.38 22.3501 18.8667 22.3501 17C22.3501 15.1333 20.8368 13.62 18.9701 13.62C17.1034 13.62 15.5901 15.1333 15.5901 17C15.5901 18.8667 17.1034 20.38 18.9701 20.38Z" fill="#00B4DB"/>
</svg>
