<svg width="14" height="14" viewBox="0 0 14 14" fill="none" xmlns="http://www.w3.org/2000/svg">
<path d="M4.32392 2.72681C4.04341 2.72948 3.77295 2.62244 3.57018 2.4285C3.3674 2.23456 3.24835 1.96905 3.23838 1.68857C3.23442 1.40163 3.34455 1.12487 3.54454 0.919165C3.74453 0.713464 4.018 0.595675 4.3048 0.59171C4.59159 0.587744 4.86821 0.697927 5.07381 0.89802C5.2794 1.09811 5.39713 1.37172 5.4011 1.65866C5.40306 1.80029 5.37647 1.94086 5.32291 2.07197C5.26935 2.20308 5.18992 2.32204 5.08938 2.42175C4.98883 2.52146 4.86922 2.59986 4.7377 2.65228C4.60618 2.70469 4.46546 2.73004 4.32392 2.72681V2.72681Z" fill="#4BC4DE"/>
<path d="M13.1087 12.5866C13.1087 13.2791 12.9496 13.4346 12.2825 13.4358C11.9693 13.4358 11.6585 13.4358 11.3464 13.4358C10.7116 13.4358 10.5658 13.2863 10.5646 12.6523C10.5646 10.7481 10.5646 8.84385 10.5538 6.9408V6.92525C10.5407 6.24465 9.9931 5.78653 9.32959 5.80806H9.31285C8.65053 5.78653 8.10058 6.24465 8.08863 6.92525V6.9408C8.07548 8.84385 8.08145 10.7481 8.07667 12.6523C8.07667 13.2863 7.93082 13.431 7.2948 13.4358C6.98396 13.4358 6.67192 13.4358 6.36109 13.4358C5.69279 13.4358 5.53378 13.2791 5.53378 12.5866C5.53378 10.7816 5.53378 8.97542 5.53378 7.17046C5.52215 6.28062 5.81443 5.41346 6.36228 4.7124C6.48838 4.55167 6.62753 4.40164 6.77833 4.26385C6.82734 4.21959 6.87756 4.17772 6.92896 4.13586C7.01721 4.08627 7.10013 4.02775 7.17644 3.96122C7.24578 3.91099 7.31631 3.86314 7.38805 3.81888C7.39775 3.81183 7.40817 3.80581 7.41913 3.80094C7.97744 3.48346 8.60516 3.30807 9.24709 3.29019H9.39414C10.0564 3.30753 10.7032 3.49361 11.2735 3.83084C11.3393 3.87151 11.4038 3.91457 11.466 3.96122C11.5395 4.02674 11.6197 4.08446 11.7051 4.13347C11.7565 4.17533 11.8067 4.21959 11.8569 4.26385C12.008 4.40134 12.1472 4.55139 12.273 4.7124C12.821 5.41352 13.1141 6.28045 13.1039 7.17046C13.1146 8.97542 13.111 10.7816 13.1087 12.5866Z" fill="#FF78F2"/>
<path opacity="0.67" d="M8.10655 12.5866C8.10655 13.2791 7.94754 13.4346 7.28044 13.4358C6.96721 13.4358 6.65637 13.4358 6.34434 13.4358C5.71071 13.4358 5.56366 13.2863 5.56246 12.6523C5.56246 10.7481 5.56246 8.84385 5.5517 6.9408V6.92525C5.53855 6.24465 4.991 5.78653 4.32748 5.80806H4.31074C3.64842 5.78653 3.09848 6.24465 3.08652 6.92525V6.9408C3.07337 8.84385 3.07935 10.7481 3.07576 12.6523C3.07576 13.2863 2.92871 13.431 2.29269 13.4358C1.98185 13.4358 1.66982 13.4358 1.35898 13.4358C0.690682 13.4358 0.531677 13.2791 0.531677 12.5866C0.529286 10.7816 0.529286 8.97542 0.529286 7.17046C0.519555 6.27954 0.814876 5.41212 1.36616 4.7124C1.49151 4.55141 1.63029 4.40136 1.781 4.26385C1.83002 4.21959 1.88023 4.17772 1.93164 4.13586C2.01698 4.08579 2.09708 4.02728 2.17075 3.96122C2.24128 3.91099 2.31062 3.86314 2.38236 3.81888C2.39206 3.81183 2.40248 3.80581 2.41344 3.80094C2.97175 3.48346 3.59947 3.30807 4.2414 3.29019H4.38965C5.05142 3.30804 5.69776 3.4941 6.26782 3.83084C6.33238 3.87151 6.39694 3.91457 6.45911 3.96122C6.53266 4.02674 6.61279 4.08446 6.69821 4.13347C6.75082 4.17533 6.80103 4.21959 6.85005 4.26385C7.00114 4.40134 7.14032 4.55139 7.26609 4.7124C7.81463 5.41324 8.10774 6.28036 8.09698 7.17046C8.10973 8.97503 8.11292 10.7804 8.10655 12.5866Z" fill="#00B4DB"/>
<path d="M9.32607 2.72681C9.04535 2.7298 8.77458 2.6229 8.57155 2.42892C8.36852 2.23495 8.24929 1.96926 8.23933 1.68856C8.23582 1.54197 8.26169 1.39615 8.31542 1.25971C8.36915 1.12328 8.44965 0.998999 8.55216 0.894199C8.65468 0.789399 8.77714 0.706206 8.91232 0.649528C9.04749 0.59285 9.19265 0.563835 9.33922 0.564197C9.62483 0.569854 9.8967 0.687923 10.0959 0.892803C10.2951 1.09768 10.4055 1.37286 10.4032 1.65866C10.405 1.80024 10.3783 1.94074 10.3247 2.07177C10.2711 2.20281 10.1917 2.3217 10.0911 2.42138C9.99063 2.52105 9.87109 2.59946 9.73965 2.65193C9.60821 2.70441 9.46755 2.72987 9.32607 2.72681V2.72681Z" fill="#FF78F2"/>
</svg>
